<?xml version="1.0" encoding="UTF-8"?>
<svg id="_레이어_2" data-name="레이어 2" xmlns="http://www.w3.org/2000/svg" viewBox="0 0 215.86 69.06">
  <defs>
    <style>
      .cls-1 {
        stroke-width: 0px;
      }
    </style>
  </defs>
  <g id="_레이어_5" data-name="레이어 5">
    <g>
      <path class="cls-1" d="m15.06,47.99c1.1-11.66,2.82-25.32,7.76-25.78.08,0,.16-.01.24-.01,5.64,0,9.19,18.12,10.43,25.79h15.18c-1.75-12.65-6.43-42.61-27.23-40.71C4.26,8.85,1.73,29.18,0,47.99h15.06Z"/>
      <polygon class="cls-1" points="57.6 5.53 57.6 21.2 48.82 21.2 48.82 36.2 57.6 36.2 57.6 61.06 72.6 61.06 72.6 5.53 57.6 5.53"/>
      <polygon class="cls-1" points="132.89 45.61 79.28 45.61 79.28 59.61 98.59 59.61 98.59 69.06 113.59 69.06 113.59 59.61 132.89 59.61 132.89 45.61"/>
      <path class="cls-1" d="m105.81,0c-14.23,0-25.38,8.83-25.38,20.1s11.15,20.1,25.38,20.1,25.38-8.83,25.38-20.1S120.04,0,105.81,0Zm-10.38,20.1c0-1.8,3.94-5.1,10.38-5.1,3.67,0,6.53,1.07,8.31,2.33l-5.95,7.72c-.74.1-1.53.16-2.36.16-6.44,0-10.38-3.3-10.38-5.1Z"/>
      <path class="cls-1" d="m182.23,51.88c-.76-.08-1.34-.44-1.79-1.08-1.21-1.75-1.31-5.29-.24-9.46,2.65-10.43,1.92-19.35-2.12-25.8-2.73-4.36-6.93-7.31-11.84-8.32-5.29-1.09-10.26-.08-14.37,2.93-8.14,5.95-11.88,18.9-14.28,36.68l13.93,9.76c2.16-19.88,5.25-31.45,9.2-34.33.47-.34,1.04-.65,2.5-.35.62.13,1.42.42,2.15,1.59.65,1.04,2.59,5.12.29,14.14-2.8,11-.2,17.88,2.46,21.72,2.91,4.19,7.47,6.9,12.51,7.44.58.06,1.24.1,1.96.1,4.73,0,12.19-1.78,19.35-10.91,5.62-7.17,10.3-17.92,13.93-31.99l-13.2-9.25c-6.78,30.36-16.31,37.6-20.43,37.14Z"/>
    </g>
  </g>
</svg>