<?xml version="1.0" encoding="UTF-8"?>
<svg id="_레이어_2" data-name="레이어 2" xmlns="http://www.w3.org/2000/svg" viewBox="0 0 224.87 95.56">
  <defs>
    <style>
      .cls-1 {
        stroke-width: 0px;
      }
    </style>
  </defs>
  <g id="_레이어_6" data-name="레이어 6">
    <g>
      <path class="cls-1" d="m19.25,76.96c-6.31,0-12.84-1.76-17.75-5.2l8.6-12.29c4.36,3.05,12.08,3.18,15.35,1.14.59-.37,1.67-1.85,1.62-3.36-.04-1.3-1.12-2.53-3.21-3.64-1.61-.86-3.33-1.67-5.14-2.54C10.03,46.94-3.09,40.71.66,26.21c1.46-5.64,5.48-9.92,11.33-12.07,9.68-3.55,22.78-.66,27.91,2.97l-8.66,12.24.03.02c-1.95-1.24-9.81-2.86-14.29-1.09-1.52.6-1.69,1.24-1.8,1.67-.25.95-.34,1.31.86,2.4,1.92,1.75,5.57,3.48,9.11,5.16,1.89.9,3.84,1.83,5.76,2.85,9.38,5,11.01,12.4,11.14,16.36.22,6.55-3.26,13.22-8.66,16.6-3.9,2.44-8.95,3.63-14.15,3.63Z"/>
      <rect class="cls-1" x="76.4" y="25.82" width="14.52" height="11" transform="translate(10.01 81.86) rotate(-54.98)"/>
      <path class="cls-1" d="m93.47,59.47c-3.61-12.2-13.63-19.47-25.5-18.49-7.05.58-13.41,4.16-17.92,10.09-5.06,6.65-7.03,15.29-5.42,23.7,2.4,12.55,12.64,20.78,25.67,20.78.39,0,.78,0,1.17-.02,11.61-.44,19.94-6.58,24.74-18.27l-12.95-5.33c-2.68,6.51-6.36,9.38-12.32,9.61-1.91.07-7.19-.14-10.37-4.27l28.66-9.27,4.75-6.78-.52-1.76Zm-34.22,3.52c.5-1.24,1.15-2.4,1.94-3.45,2.07-2.72,4.88-4.36,7.91-4.61.33-.03.66-.04.98-.04,2.85,0,4.93,1.07,6.45,2.51l-17.29,5.59Z"/>
      <path class="cls-1" d="m123.5,72.3c-15.07,1.2-27.6-11.33-26.4-26.4.95-11.86,10.55-21.46,22.41-22.41,15.07-1.2,27.6,11.33,26.4,26.4-.95,11.86-10.55,21.46-22.41,22.41Zm-.39-33.75c-6.48-1.07-12.03,4.48-10.96,10.96.65,3.93,3.81,7.09,7.74,7.74,6.48,1.07,12.03-4.48,10.96-10.96-.65-3.93-3.81-7.09-7.74-7.74Z"/>
      <path class="cls-1" d="m220.83,62.59V0h-15v62.59c0,10.38,3.25,14.92,10.45,19.76l8.6-12.27c-4.03-2.58-4.05-3.18-4.05-7.48Z"/>
      <path class="cls-1" d="m174.86,92.76c-12.49,0-23.04-11.59-23.04-25.3v-26.66h15v26.66c0,5.8,4.33,10.31,8.04,10.31,6.51,0,7.84-7.45,7.84-9.44v-27.59h15v27.59c0,5.52-1.91,11.22-5.24,15.64-4.27,5.67-10.52,8.8-17.6,8.8Z"/>
    </g>
  </g>
</svg>